:FULLY-SPECIFIED
:FORCE-ALL-JOINTS-BE-3DOF
:DEGREES
2039
root -3.38531 14.8591 22.9656 895.115 -8.07559 173.037
lfemur -11.0919 11.1496 -19.9831
ltibia 52.9886 0 0
lfoot -27.2651 28.698 0
ltoes -36.4311 0 0
rfemur -37.6956 -9.90093 3.37378
rtibia 45.2974 0 0
rfoot 26.7806 -4.59133 0
rtoes 8.17125 0 0
lowerback 14.5182 0.632078 -7.5032
upperback 0.556506 -0.439378 1.70714
thorax -7.66546 0.0409051 6.11442
lowerneck -3.86754 -4.33694 -6.9771
upperneck 10.3459 -5.90109 0.162042
head 4.38925 -3.20744 0.650199
lclavicle -8.19171e-14 1.09287e-14 0
lhumerus -45.6167 -3.66845 100.584
lradius 76.846 0 0
lwrist 34.8484 0 0
lhand -28.3846 26.8371 0
lfingers 7.12502 0 0
lthumb -1.75445 -674.936 0
rclavicle -8.19171e-14 1.09287e-14 0
rhumerus 17.5665 -16.7055 -101.494
rradius 33.4952 0 0
rwrist 57.1062 0 0
rhand -0.457824 -394.515 0
rfingers 7.12502 0 0
rthumb 25.1502 297.138 0
2040
root -3.37727 14.8497 22.8077 894.851 -8.88322 173
lfemur -10.242 10.5046 -20.2494
ltibia 52.7417 0 0
lfoot -27.6208 28.4681 0
ltoes -36.9508 0 0
rfemur -38.2125 -10.025 3.37248
rtibia 44.4598 0 0
rfoot 27.2056 -3.93966 0
rtoes 8.19104 0 0
lowerback 14.6367 0.740986 -7.61727
upperback 0.604617 -0.324327 1.63296
thorax -7.6903 0.0966049 6.08009
lowerneck -3.81252 -4.6868 -7.23202
upperneck 10.5466 -6.3767 0.396293
head 4.45402 -3.4485 0.743677
lclavicle -8.27824e-14 8.09642e-15 0
lhumerus -46.9364 -4.64559 101.236
lradius 79.5272 0 0
lwrist 37.4838 0 0
lhand -28.284 26.7385 0
lfingers 7.12502 0 0
lthumb -1.65727 -669.938 0
rclavicle -8.27824e-14 8.09642e-15 0
rhumerus 20.7931 -17.2526 -101.306
rradius 31.3115 0 0
rwrist 60.6899 0 0
rhand -0.681507 -394.394 0
rfingers 7.12502 0 0
rthumb 24.9359 297.229 0
2041
root -3.36917 14.8414 22.6379 894.601 -9.68095 172.97
lfemur -9.40349 9.86186 -20.502
ltibia 52.5361 0 0
lfoot -27.9381 28.213 0
ltoes -37.4656 0 0
rfemur -38.7297 -10.1292 3.39421
rtibia 43.6605 0 0
rfoot 27.5695 -3.30236 0
rtoes 8.20568 0 0
lowerback 14.7474 0.85129 -7.72221
upperback 0.650304 -0.205682 1.5585
thorax -7.71317 0.153829 6.03977
lowerneck -3.75597 -5.03599 -7.48489
upperneck 10.7327 -6.85116 0.636898
head 4.51407 -3.68859 0.839744
lclavicle -8.3513e-14 5.29916e-15 0
lhumerus -48.2771 -5.62284 101.899
lradius 82.1815 0 0
lwrist 40.0662 0 0
lhand -28.1609 26.7085 0
lfingers 7.12502 0 0
lthumb -1.53852 -665.348 0
rclavicle -8.3513e-14 5.29916e-15 0
rhumerus 24.0051 -17.763 -101.062
rradius 29.164 0 0
rwrist 64.1326 0 0
rhand -0.908067 -394.285 0
rfingers 7.12502 0 0
rthumb 24.7188 297.307 0
2042
root -3.36125 14.8341 22.4552 894.366 -10.4706 172.946
lfemur -8.57558 9.22262 -20.7387
ltibia 52.3746 0 0
lfoot -28.2144 27.9323 0
ltoes -37.9744 0 0
rfemur -39.2476 -10.2122 3.43913
rtibia 42.9026 0 0
rfoot 27.8707 -2.67978 0
rtoes 8.21666 0 0
lowerback 14.8497 0.96294 -7.81799
upperback 0.693365 -0.0835085 1.4837
thorax -7.73384 0.212547 5.99338
lowerneck -3.69799 -5.38486 -7.73585
upperneck 10.9033 -7.32492 0.884424
head 4.56908 -3.9279 0.938647
lclavicle -8.4105e-14 2.54809e-15 0
lhumerus -49.6456 -6.59663 102.577
lradius 84.8005 0 0
lwrist 42.5889 0 0
lhand -28.0146 26.7514 0
lfingers 7.12502 0 0
lthumb -1.39733 -661.243 0
rclavicle -8.4105e-14 2.54809e-15 0
rhumerus 27.1993 -18.2365 -100.758
rradius 27.0549 0 0
rwrist 67.4248 0 0
rhand -1.13711 -394.188 0
rfingers 7.12502 0 0
rthumb 24.4993 297.374 0
2043
root -3.35376 14.8279 22.2587 894.145 -11.2542 172.928
lfemur -7.75741 8.58807 -20.9574
ltibia 52.2601 0 0
lfoot -28.4475 27.6255 0
ltoes -38.4765 0 0
rfemur -39.7664 -10.2728 3.50743
rtibia 42.1889 0 0
rfoot 28.1075 -2.07228 0
rtoes 8.22551 0 0
lowerback 14.9426 1.07589 -7.90455
upperback 0.733596 0.0421256 1.4085
thorax -7.75207 0.272732 5.94086
lowerneck -3.63868 -5.73375 -7.98506
upperneck 11.0576 -7.79844 1.13944
head 4.61872 -4.16665 1.04063
lclavicle -8.45547e-14 -1.45604e-16 0
lhumerus -51.0484 -7.5634 103.274
lradius 87.376 0 0
lwrist 45.0449 0 0
lhand -27.8441 26.8714 0
lfingers 7.12502 0 0
lthumb -1.23283 -657.701 0
rclavicle -8.45547e-14 -1.45604e-16 0
rhumerus 30.3724 -18.6732 -100.394
rradius 24.9863 0 0
rwrist 70.5571 0 0
rhand -1.36823 -394.104 0
rfingers 7.12502 0 0
rthumb 24.2778 297.427 0
2044
root -3.34696 14.8231 22.0474 893.938 -12.0334 172.915
lfemur -6.94815 7.95943 -21.1558
ltibia 52.1957 0 0
lfoot -28.6351 27.2922 0
ltoes -38.971 0 0
rfemur -40.2864 -10.3095 3.59927
rtibia 41.5225 0 0
rfoot 28.2782 -1.48021 0
rtoes 8.23373 0 0
lowerback 15.0255 1.19008 -7.98185
upperback 0.770795 0.171153 1.33283
thorax -7.76762 0.334353 5.88211
lowerneck -3.57815 -6.08301 -8.23266
upperneck 11.1947 -8.27215 1.40251
head 4.66268 -4.40503 1.14593
lclavicle -8.48582e-14 -2.77075e-15 0
lhumerus -52.4922 -8.51958 103.993
lradius 89.8998 0 0
lwrist 47.4274 0 0
lhand -27.6486 27.0728 0
lfingers 7.12502 0 0
lthumb -1.04414 -654.799 0
rclavicle -8.48582e-14 -2.77075e-15 0
rhumerus 33.5213 -19.073 -99.9667
rradius 22.9603 0 0
rwrist 73.5197 0 0
rhand -1.60105 -394.034 0
rfingers 7.12502 0 0
rthumb 24.0547 297.466 0
2045
root -3.34108 14.8198 21.8205 893.746 -12.8101 172.906
lfemur -6.14698 7.3379 -21.3317
ltibia 52.1842 0 0
lfoot -28.7748 26.9321 0
ltoes -39.457 0 0
rfemur -40.8078 -10.3212 3.71484
rtibia 40.9063 0 0
rfoot 28.381 -0.903929 0
rtoes 8.24283 0 0
lowerback 15.0976 1.30548 -8.04983
upperback 0.804757 0.303508 1.25662
thorax -7.78025 0.397382 5.81706
lowerneck -3.51649 -6.43299 -8.47881
upperneck 11.3136 -8.74652 1.67419
head 4.70063 -4.64325 1.25481
lclavicle -8.50117e-14 -5.31615e-15 0
lhumerus -53.9838 -9.46159 104.74
lradius 92.3635 0 0
lwrist 49.7296 0 0
lhand -27.427 27.3599 0
lfingers 7.12502 0 0
lthumb -0.830405 -652.614 0
rclavicle -8.50117e-14 -5.31615e-15 0
rhumerus 36.6426 -19.4361 -99.4738
rradius 20.9791 0 0
rwrist 76.3033 0 0
rhand -1.83516 -393.978 0
rfingers 7.12502 0 0
rthumb 23.8304 297.491 0
